<?xml version="1.0" encoding="UTF-8"?>
<!DOCTYPE svg PUBLIC "-//W3C//DTD SVG 1.1//EN" "http://www.w3.org/Graphics/SVG/1.1/DTD/svg11.dtd">
<!-- Creator: CorelDRAW 2021.5 -->
<svg xmlns="http://www.w3.org/2000/svg" xml:space="preserve" width="33.4908mm" height="26.3141mm" version="1.1" style="shape-rendering:geometricPrecision; text-rendering:geometricPrecision; image-rendering:optimizeQuality; fill-rule:evenodd; clip-rule:evenodd"
viewBox="0 0 110180.13 86569.77"
 xmlns:xlink="http://www.w3.org/1999/xlink"
 xmlns:xodm="http://www.corel.com/coreldraw/odm/2003">
 <defs>
  <style type="text/css">
   <![CDATA[
    .fil0 {fill:#242424}
   ]]>
  </style>
 </defs>
 <g id="Layer_x0020_1">
  <metadata id="CorelCorpID_0Corel-Layer"/>
  <path class="fil0" d="M18517.32 0l73145.49 0c10184.76,0 18517.32,8332.56 18517.32,18517.32l0 49535.13c0,10184.76 -8332.56,18517.32 -18517.32,18517.32l-73145.49 0c-10184.76,0 -18517.32,-8332.56 -18517.32,-18517.32l0 -49535.13c0,-10184.76 8332.56,-18517.32 18517.32,-18517.32zm52200.91 35707.51l3434.29 0c3850.13,0 7000.17,3150.04 7000.17,7000.5 0,3850.13 -3150.04,7000.17 -7000.17,7000.17l-3434.29 0c-3850.13,0 -7000.17,-3150.04 -7000.17,-7000.17 0,-3850.46 3150.04,-7000.5 7000.17,-7000.5zm-18256.43 29712.72c-3701.1,0 -6729.08,-3027.99 -6729.08,-6729.08l0 -9178.06 -10357.47 0c-3700.77,0 -6729.08,-3027.99 -6729.08,-6729.08 0,-3701.1 3027.99,-6729.08 6729.08,-6729.08l10357.47 0 0 -9683.38c0,-3701.1 3027.99,-6729.08 6729.08,-6729.08 3701.1,0 6729.08,3028.65 6729.08,6729.08l0 32319.61c0,3700.44 -3027.99,6729.08 -6729.08,6729.08zm-31982.4 -55208.17l69221.34 0c5611.85,0 10202.85,4591 10202.85,10202.52l0 45740.27c0,5611.52 -4591,10202.85 -10202.85,10202.85l-69221.34 0c-5611.85,0 -10202.85,-4591.33 -10202.85,-10202.85l0 -45740.27c0,-5611.52 4591,-10202.52 10202.85,-10202.52z"/>
 </g>
</svg>
