<?xml version="1.0" encoding="UTF-8"?>
<!DOCTYPE svg PUBLIC "-//W3C//DTD SVG 1.1//EN" "http://www.w3.org/Graphics/SVG/1.1/DTD/svg11.dtd">
<!-- Creator: CorelDRAW 2021.5 -->
<svg xmlns="http://www.w3.org/2000/svg" xml:space="preserve" width="77.7554mm" height="76.6989mm" version="1.1" style="shape-rendering:geometricPrecision; text-rendering:geometricPrecision; image-rendering:optimizeQuality; fill-rule:evenodd; clip-rule:evenodd"
viewBox="0 0 1492.62 1472.34"
 xmlns:xlink="http://www.w3.org/1999/xlink"
 xmlns:xodm="http://www.corel.com/coreldraw/odm/2003">
 <defs>
  <style type="text/css">
   <![CDATA[
    .fil0 {fill:black}
   ]]>
  </style>
 </defs>
 <g id="Layer_x0020_1">
  <metadata id="CorelCorpID_0Corel-Layer"/>
  <g id="_1972551063968">
   <path class="fil0" d="M853.79 615.94c21.86,-13.15 88.71,-82.47 101.36,-107.81l-368.98 -365.28c-34.57,13.51 -361.09,353.36 -369.43,367.49 23.28,33.66 349.42,361.42 370.71,373.22l96.68 -102.98c23.87,9.58 11.41,2.32 30.6,21.34 8.77,8.69 13.85,14.73 23.02,24.1l493.37 495.38c45.12,44.39 130.39,160.3 224.2,71.69 98.38,-92.94 -24.14,-192.82 -66.9,-235.79l-134.4 -136.49c-15.71,-15.72 -31.29,-25.54 -47.11,-40.88 -61.69,-59.83 -118.22,-118.75 -178.53,-180.37 -54.68,-55.88 -130.66,-123.96 -174.6,-183.6z"/>
   <path class="fil0" d="M712.12 1316.38c24.94,-24.86 50.41,-32.93 44.68,-80.85 -12.1,-101.07 -183.67,-67.54 -326.39,-67.54 -141.48,0 -313.18,-31.8 -315.6,74.31 -0.9,39.48 17.82,55.12 34.69,71.1l12.07 12.09c-65.94,-0.74 -130.78,-12.22 -152.88,36.51 -24.82,54.73 6.67,103.66 56.07,110.34l744.62 -0.24c51.74,-7.43 85.93,-63.77 49.42,-116.83 -28.25,-41.05 -92.55,-30.01 -154.93,-30.01l8.26 -8.87z"/>
   <path class="fil0" d="M140.48 569.25c-40.67,45.54 -102.5,90.01 -35.81,165.51l256 258.28c20.38,18.86 57.53,36.88 95.96,17.47l65.06 -66.77c-22.01,-35.83 -223.48,-229.63 -279.6,-285.75 -29.77,-29.77 -61.93,-75.32 -101.63,-88.75z"/>
   <path class="fil0" d="M645.19 76.93l367.44 371.47c44.83,-22.27 117.8,-89.77 51.08,-158.19l-256.46 -258.4c-23.53,-23.29 -49.08,-43.95 -93.13,-23.36 -20.85,9.74 -56.82,43.39 -68.93,68.48z"/>
  </g>
 </g>
</svg>
