<?xml version="1.0" encoding="UTF-8"?>
<!DOCTYPE svg PUBLIC "-//W3C//DTD SVG 1.1//EN" "http://www.w3.org/Graphics/SVG/1.1/DTD/svg11.dtd">
<!-- Creator: CorelDRAW 2021.5 -->
<svg xmlns="http://www.w3.org/2000/svg" xml:space="preserve" width="10.8371mm" height="2.8465mm" version="1.1" style="shape-rendering:geometricPrecision; text-rendering:geometricPrecision; image-rendering:optimizeQuality; fill-rule:evenodd; clip-rule:evenodd"
viewBox="0 0 117.87 30.96"
 xmlns:xlink="http://www.w3.org/1999/xlink"
 xmlns:xodm="http://www.corel.com/coreldraw/odm/2003">
 <defs>
  <style type="text/css">
   <![CDATA[
    .fil0 {fill:#332C2B;fill-rule:nonzero}
   ]]>
  </style>
 </defs>
 <g id="Layer_x0020_1">
  <metadata id="CorelCorpID_0Corel-Layer"/>
  <path class="fil0" d="M16.75 24.74l0 -11.47c-1.17,0.19 -2.23,0.76 -3.04,1.57 -1.01,1.01 -1.64,2.4 -1.64,3.93l0.01 0 -0.01 0.01 -0 5.76 0.01 0c0,0.54 0.22,1.04 0.58,1.4 0.27,0.27 0.62,0.47 1,0.55l1.35 0 0.01 0.01c0.47,0 0.9,-0.2 1.22,-0.52 0.32,-0.32 0.52,-0.75 0.52,-1.22l-0.01 -0zm-0.06 -15.94c-0.17,-1.1 -0.69,-2.09 -1.45,-2.85 -0.93,-0.93 -2.21,-1.51 -3.61,-1.51l-0.01 0.01 -2.05 0 -0.01 -0.01c-1.4,0 -2.68,0.58 -3.61,1.51 -0.93,0.93 -1.51,2.21 -1.51,3.62l0 15.17 -0.01 0c0,0.47 0.2,0.91 0.52,1.23 0.32,0.32 0.75,0.51 1.22,0.51l1.73 0c-0.2,-0.61 -0.3,-1.27 -0.3,-1.94l0.01 -0.01 0 -5.76 -0.01 0 0.01 -0.01c0,-2.76 1.13,-5.26 2.93,-7.07 1.6,-1.6 3.74,-2.66 6.13,-2.89zm9.45 15.73l0 -5.76 0.01 -0c-0,-1.52 -0.63,-2.92 -1.64,-3.93 -0.87,-0.87 -2.03,-1.46 -3.31,-1.6l0 11.5 -0.01 0.01c0,0.61 -0.09,1.21 -0.26,1.77l3.23 0 0 0.01c0.54,-0 1.03,-0.23 1.39,-0.59 0.36,-0.36 0.59,-0.85 0.59,-1.39l-0.01 -0zm4.45 -5.77l0 5.77 -0.01 0.01c-0,1.77 -0.72,3.37 -1.88,4.53 -1.16,1.16 -2.76,1.88 -4.53,1.88l-0.01 0.01c-6,0 -11.98,-0.03 -17.98,-0.03 -1.7,0 -3.25,-0.69 -4.37,-1.82 -1.12,-1.11 -1.81,-2.66 -1.81,-4.36l-0.01 -0.01 0 -15.17c0,-2.63 1.08,-5.03 2.81,-6.76 1.73,-1.73 4.12,-2.8 6.76,-2.8l0 -0.01 2.05 0 0 0.01c2.64,0 5.03,1.07 6.76,2.8 1.56,1.56 2.58,3.64 2.77,5.96 2.53,0.15 4.81,1.24 6.49,2.92 1.81,1.81 2.93,4.31 2.93,7.07l0.01 0.01z"/>
  <path class="fil0" d="M43.47 30.12c-2.63,0 -4.66,-0.86 -6.12,-2.58 -1.45,-1.72 -2.19,-4.14 -2.19,-7.27 0,-3.13 0.73,-5.56 2.19,-7.27 1.45,-1.71 3.49,-2.56 6.12,-2.56 2.63,0 4.68,0.85 6.12,2.56 1.45,1.72 2.17,4.14 2.17,7.27 0,3.13 -0.72,5.54 -2.17,7.27 -1.45,1.72 -3.49,2.58 -6.12,2.58zm0 -3.4c1.39,0 2.47,-0.56 3.23,-1.68 0.76,-1.12 1.14,-2.71 1.14,-4.76 0,-2.06 -0.38,-3.65 -1.14,-4.76 -0.76,-1.12 -1.84,-1.67 -3.23,-1.67 -1.4,0 -2.47,0.56 -3.23,1.67 -0.76,1.11 -1.14,2.7 -1.14,4.76 0,2.05 0.38,3.64 1.14,4.76 0.76,1.12 1.83,1.68 3.23,1.68zm19.82 -13.24c0.91,-1.28 1.66,-3.04 5.94,-3.04 1.95,0 3.38,0.56 4.26,1.68 0.79,1 1.22,2.54 1.31,4.63 0,0.08 -0.12,0.81 -0.92,0.81l-1.89 0c-0.61,0.04 -0.95,-0.72 -0.96,-0.93 -0.06,-0.91 -0.27,-1.6 -0.58,-2.06 -0.42,-0.61 -1.08,-0.92 -2,-0.92 -1.61,0 -2.81,0.69 -3.6,2.07 -0.78,1.35 -1.18,3.27 -1.19,5.76l0 0.07 0 0.05 0 4.83 3.33 0c1.66,0 1.33,1.53 1.33,1.53 0,0 0.42,1.8 -1.29,1.8l-3.37 0 -0.06 0 -0.06 0 -0.01 0 -0.05 0 -0.06 0 -0.04 0 -0.02 0 -0.06 0 -0.06 0 -0.01 0 -0.05 0 -0.06 0 -0.04 0 -0.02 0 -0.06 0 -0.06 0 -0.01 0 -0.04 0 -0.06 0 -0.05 0 -0.01 0 -0.06 0 -0.06 0 -0.02 0 -0.04 0 -0.06 0 -0.05 0 -0.01 0 -0.06 0 -0.06 0 -0.02 0 -0.04 0 -0.06 0 -0.05 0 -0.01 0 -0.06 0 -0.06 0 -0.03 0 -0.03 0 -0.06 0 -0.06 0 -0 0 -0.06 0 -0.06 0 -0.03 0 -0.03 0 -0.06 0 -0.06 0 -0 0 -0.06 0 -0.06 0 -0.03 0 -0.03 0 -0.06 0 -0.06 0 -0.01 0 -0.05 0 -0.06 0 -0.04 0 -0.02 0 -0.06 0 -0.06 0 -0.01 0 -0.05 0 -0.06 0 -0.05 0 -0.01 0 -0.06 0 -0.06 0 -0.02 0 -0.04 0 -0.06 0 -0.05 0 -0.01 0 -0.06 0 -0.06 0 -0.03 0 -0.03 0 -0.06 0 -0.06 0 -0 0 -0.06 0 -0.06 0 -0.03 0 -0.03 0 -0.06 0 -0.06 0 -0.01 0 -0.05 0 -2.57 0c-1.71,0 -1.66,-1.34 -1.65,-1.79 -0,-0.23 0.06,-1.54 1.49,-1.54l2.74 0 0 -12.31 -2.24 0c-0.23,0 -1.27,-0.62 -1.27,-1.7 0.12,0.13 -0.37,-1.62 1.21,-1.62l2.29 0 2.83 0 0.25 0 0.35 2.68zm24.95 16.64c-3.24,0 -5.73,-0.85 -7.49,-2.55 -1.76,-1.7 -2.64,-4.14 -2.64,-7.33 0,-3.1 0.84,-5.51 2.5,-7.22 1.67,-1.72 4.04,-2.58 7.13,-2.58 1.84,0 3.43,0.34 4.74,1.03 3.33,1.74 3.76,6.46 -2.16,3.09 -0.83,-0.48 -1.75,-0.71 -2.74,-0.71 -1.79,0 -3.17,0.54 -4.16,1.62 -1,1.07 -1.49,2.61 -1.49,4.6 0,2.16 0.59,3.81 1.75,4.95 1.16,1.14 2.82,1.71 4.98,1.71 0.88,0 1.76,-0.04 2.65,-0.13 2.6,-0.23 2.67,0.47 2.8,1.38 0.05,1.2 -0.26,1.86 -2.83,2.04 -1.04,0.07 -2.06,0.11 -3.05,0.11zm23.48 -1.51l-0.03 -0.61c-1.71,1.29 -4.42,2.37 -6.29,2.17 -0.26,-0.03 -0.49,-0.05 -0.76,-0.06 -1.77,-0.07 -3.15,-0.55 -4.15,-1.43 -1.09,-0.95 -1.63,-2.3 -1.63,-4.04 0,-2 0.75,-3.54 2.25,-4.62 1.5,-1.07 3.61,-1.61 6.34,-1.61 1.13,0 2.14,0.07 3.03,0.2 0.19,0.03 0.37,0.06 0.54,0.1l0 -0.87c0,-1.26 -0.44,-2.19 -1.33,-2.78 -0.89,-0.59 -2.21,-0.91 -3.96,-0.95 -0.96,-0.03 -1.19,-0.03 -2.15,-0.06 -2.06,-0.06 -2.2,-1.91 -2.2,-1.91 0,0 -0.1,-1.52 1.78,-1.49 0.74,0.01 1.47,0.02 2.21,0.03 3.13,0.05 5.46,0.73 6.98,2.03 1.52,1.3 2.28,3.21 2.28,5.72 0,2.63 0,5.27 0,7.9 0.26,0.03 0.52,0.05 0.78,0.07 1.82,0.14 3.32,0.16 1.88,2.7 -0.76,1.34 -5.46,2.3 -5.58,-0.49zm-0.69 -5.86l0 -1.12c-0.44,-0.06 -0.87,-0.1 -1.3,-0.12 -0.76,-0.03 -1.55,-0.04 -2.34,-0.04 -3.29,0 -4.94,1 -4.94,3 0,0.84 0.29,1.48 0.85,1.93 0.57,0.45 1.37,0.68 2.41,0.68 1.18,0 2.17,-0.21 2.96,-0.61 0.79,-0.4 1.39,-0.92 1.78,-1.56 0.39,-0.63 0.59,-1.28 0.59,-1.95l0 -0.21z"/>
 </g>
</svg>
