<?xml version="1.0" encoding="UTF-8"?>
<!DOCTYPE svg PUBLIC "-//W3C//DTD SVG 1.1//EN" "http://www.w3.org/Graphics/SVG/1.1/DTD/svg11.dtd">
<!-- Creator: CorelDRAW 2021.5 -->
<svg xmlns="http://www.w3.org/2000/svg" xml:space="preserve" width="2.8124mm" height="2.8465mm" version="1.1" style="shape-rendering:geometricPrecision; text-rendering:geometricPrecision; image-rendering:optimizeQuality; fill-rule:evenodd; clip-rule:evenodd"
viewBox="0 0 7.94 8.03"
 xmlns:xlink="http://www.w3.org/1999/xlink"
 xmlns:xodm="http://www.corel.com/coreldraw/odm/2003">
 <defs>
  <style type="text/css">
   <![CDATA[
    .fil0 {fill:#332C2B;fill-rule:nonzero}
   ]]>
  </style>
 </defs>
 <g id="Layer_x0020_1">
  <metadata id="CorelCorpID_0Corel-Layer"/>
  <path class="fil0" d="M4.35 6.42l0 -2.98c-0.3,0.05 -0.58,0.2 -0.79,0.41 -0.26,0.26 -0.43,0.62 -0.43,1.02l0 0 -0 0 -0 1.49 0 0c0,0.14 0.06,0.27 0.15,0.36 0.07,0.07 0.16,0.12 0.26,0.14l0.35 0 0 0c0.12,0 0.23,-0.05 0.32,-0.13 0.08,-0.08 0.13,-0.2 0.13,-0.32l-0 -0zm-0.02 -4.14c-0.04,-0.29 -0.18,-0.54 -0.38,-0.74 -0.24,-0.24 -0.57,-0.39 -0.94,-0.39l-0 0 -0.53 0 -0 -0c-0.36,0 -0.69,0.15 -0.94,0.39 -0.24,0.24 -0.39,0.57 -0.39,0.94l0 3.94 -0 0c0,0.12 0.05,0.24 0.13,0.32 0.08,0.08 0.19,0.13 0.32,0.13l0.45 0c-0.05,-0.16 -0.08,-0.33 -0.08,-0.5l0 -0 0 -1.49 -0 0 0 -0c0,-0.72 0.29,-1.36 0.76,-1.83 0.42,-0.42 0.97,-0.69 1.59,-0.75zm2.45 4.08l0 -1.5 0 -0c-0,-0.4 -0.16,-0.76 -0.43,-1.02 -0.23,-0.23 -0.53,-0.38 -0.86,-0.42l0 2.99 -0 0c0,0.16 -0.02,0.31 -0.07,0.46l0.84 0 0 0c0.14,-0 0.27,-0.06 0.36,-0.15 0.09,-0.09 0.15,-0.22 0.15,-0.36l-0 -0zm1.15 -1.5l0 1.5 -0 0c-0,0.46 -0.19,0.88 -0.49,1.18 -0.3,0.3 -0.72,0.49 -1.18,0.49l-0 0c-1.56,0 -3.11,-0.01 -4.67,-0.01 -0.44,0 -0.84,-0.18 -1.13,-0.47 -0.29,-0.29 -0.47,-0.69 -0.47,-1.13l-0 -0 0 -3.94c0,-0.68 0.28,-1.31 0.73,-1.75 0.45,-0.45 1.07,-0.73 1.76,-0.73l0 -0 0.53 0 0 0c0.69,0 1.31,0.28 1.75,0.73 0.4,0.4 0.67,0.95 0.72,1.55 0.66,0.04 1.25,0.32 1.68,0.76 0.47,0.47 0.76,1.12 0.76,1.83l0 0z"/>
 </g>
</svg>
